<svg xmlns="http://www.w3.org/2000/svg" viewBox="0 0 500 500"><g id="freepik--Form--inject-9"><path d="M139,135.45a7.78,7.78,0,1,0-15.56,0Z" style="fill:#BA68C8"></path><path d="M296.78,417.51h-150a7.78,7.78,0,0,1-7.78-7.78V135.45a7.78,7.78,0,0,0-7.78-7.79h150a7.78,7.78,0,0,1,7.78,7.79V409.73A7.78,7.78,0,0,0,296.78,417.51Z" style="fill:#BA68C8"></path><path d="M296.78,417.51h-150a7.78,7.78,0,0,1-7.78-7.78V135.45a7.78,7.78,0,0,0-7.78-7.79h150a7.78,7.78,0,0,1,7.78,7.79V409.73A7.78,7.78,0,0,0,296.78,417.51Z" style="fill:#fff;opacity:0.7000000000000001;isolation:isolate"></path><path d="M146.78,417.51a7.78,7.78,0,0,0,7.78-7.78h150a7.78,7.78,0,0,1-7.78,7.78Z" style="fill:#BA68C8"></path><rect x="140.71" y="141.38" width="146.44" height="19.78" style="fill:#BA68C8"></rect><path d="M182.12,146.65H144.67a.92.92,0,0,1-.92-.92h0a.92.92,0,0,1,.92-.92h37.45a.92.92,0,0,1,.92.92h0A.92.92,0,0,1,182.12,146.65Z" style="fill:#fff;opacity:0.7000000000000001;isolation:isolate"></path><path d="M152.12,150.35h-7.45a.93.93,0,0,1-.92-.93h0a.92.92,0,0,1,.92-.92h7.45a.92.92,0,0,1,.92.92h0A.93.93,0,0,1,152.12,150.35Z" style="fill:#fff;opacity:0.7000000000000001;isolation:isolate"></path><path d="M282.12,157.73H244.67a.92.92,0,0,1-.92-.92h0a.93.93,0,0,1,.92-.93h37.45a.93.93,0,0,1,.92.93h0A.92.92,0,0,1,282.12,157.73Z" style="fill:#fff;opacity:0.7000000000000001;isolation:isolate"></path><g style="isolation:isolate"><path d="M183.12,331.65H145.67a.92.92,0,0,1-.92-.92h0a.92.92,0,0,1,.92-.92h37.45a.92.92,0,0,1,.92.92h0A.92.92,0,0,1,183.12,331.65Z" style="opacity:0.2;isolation:isolate"></path><rect x="144.75" y="334.13" width="136.92" height="65.65" style="fill:#fff;opacity:0.8;isolation:isolate"></rect></g><g style="isolation:isolate"><path d="M183.12,211.65H145.67a.92.92,0,0,1-.92-.92h0a.92.92,0,0,1,.92-.92h37.45a.92.92,0,0,1,.92.92h0A.92.92,0,0,1,183.12,211.65Z" style="opacity:0.2;isolation:isolate"></path><rect x="144.75" y="214.13" width="136.92" height="29.39" style="fill:#fff;opacity:0.8;isolation:isolate"></rect></g><path d="M146.78,417.51a7.78,7.78,0,0,0,7.78-7.78h150a7.78,7.78,0,0,1-7.78,7.78Z" style="fill:#fff;opacity:0.30000000000000004;isolation:isolate"></path><path d="M139,135.45a7.78,7.78,0,1,0-15.56,0Z" style="fill:#fff;opacity:0.30000000000000004;isolation:isolate"></path><path d="M227.42,196.31a1,1,0,0,1-.72-.29,1.71,1.71,0,0,1-.16-1.79,4.71,4.71,0,0,1,1.66-2.1,2.42,2.42,0,0,0-1.87-1.24c-1.27-.2-2.46.92-3.73,2.11-1.66,1.55-3.54,3.31-5.86,1.87-1-.59-1.33-1.79-1.14-3.53l-.83.62c-1.59,1.17-5.42,3.81-6.54,3.09-.9-.58-.72-1.81-.55-2.89.08-.59.2-1.4,0-1.61s-.31-.1-.43-.09c-.85,0-2.37,1.11-3.84,2.12-2.49,1.72-5.06,3.5-6.95,2.77s-1.75-2.37-1.69-3.72c0-1.19,0-1.94-.64-2.23s-3.65,1.6-5.72,3c-3.13,2.16-5.84,4-7.25,3.21a2,2,0,0,1-.91-1.32,19.56,19.56,0,0,1-6.12,1.55,2.46,2.46,0,0,1-2-.68c-1.32-1.34-1.08-4.36-.85-7.29.18-2.26.38-4.82-.36-5.6a.76.76,0,0,0-.67-.25c-3.39.08-12.8,10.2-16.14,14.09l-.76-.65c1.26-1.47,12.43-14.34,16.88-14.44a1.81,1.81,0,0,1,1.42.56c1,1.11.85,3.55.63,6.37-.21,2.58-.44,5.49.56,6.51a1.48,1.48,0,0,0,1.23.38,18.53,18.53,0,0,0,6.12-1.61.76.76,0,0,1,0-.15c.16-1.85,1.42-4.31,2.86-4.84a1.59,1.59,0,0,1,1.74.4,1.66,1.66,0,0,1,.39,1.83c-.43,1.15-2,2.38-4,3.38a1.15,1.15,0,0,0,.47.9c.87.51,3.94-1.62,6.18-3.18,3.34-2.3,5.46-3.67,6.69-3.13s1.29,2,1.24,3.19c-.06,1.43,0,2.33,1,2.75,1.39.54,4-1.23,6-2.66,1.73-1.19,3.22-2.23,4.34-2.3a1.47,1.47,0,0,1,1.24.41c.52.57.38,1.52.24,2.44s-.24,1.67.11,1.9c.65.12,3.92-1.76,7.1-4.35,0-.21.11-.42.18-.64,1-3.39,3.75-8.4,5.57-8.4h0c.31,0,.88.15,1.13,1.06.69,2.52-3.32,6.32-6,8.52-.4,1.87-.23,3.16.5,3.62,1.56,1,2.79,0,4.65-1.75,1.38-1.3,2.82-2.64,4.57-2.36A3.39,3.39,0,0,1,229,191.6a9.45,9.45,0,0,1,3.68-1c5-.43,5.55,2.49,5.81,3.9a4.85,4.85,0,0,0,.12.58c.89-.12,5.6-3.24,8.43-5.51a1.73,1.73,0,0,1,2.27,0,4.73,4.73,0,0,1,1.34,2.05,5.05,5.05,0,0,1,4.33.55c3.92,2.45,14,2.67,18.23-.39l.58.81c-4.6,3.34-15.13,3.06-19.34.43a4,4,0,0,0-3.53-.43,4.1,4.1,0,0,1-.11,2.39,1.42,1.42,0,0,1-1.67.84,1.43,1.43,0,0,1-1.27-1.08,2.68,2.68,0,0,1,1.41-2.44,4.87,4.87,0,0,1,.45-.27,3.82,3.82,0,0,0-1-1.67.73.73,0,0,0-1,0c-.08.07-8.06,6.31-9.52,5.65-.44-.2-.54-.72-.65-1.32-.27-1.45-.63-3.44-4.74-3.08a8.42,8.42,0,0,0-3.39,1,3.34,3.34,0,0,1,.09.52,3,3,0,0,1-1.62,3.17A1.54,1.54,0,0,1,227.42,196.31Zm1.08-3.13a3.63,3.63,0,0,0-1,1.37c-.18.45-.12.71-.08.76a.26.26,0,0,0,.14,0A2,2,0,0,0,228.5,193.18ZM250,193l-.12.08c-.72.5-1.08,1.11-1,1.42s.28.25.48.29a.43.43,0,0,0,.57-.27A2.84,2.84,0,0,0,250,193Zm-66.38-3.83a.69.69,0,0,0-.24.05c-.87.32-1.86,2-2.15,3.52a6.49,6.49,0,0,0,3-2.58.65.65,0,0,0-.15-.77A.66.66,0,0,0,183.64,189.17Zm38-7.35c-.82,0-3.13,3.28-4.36,6.86a27.24,27.24,0,0,0,2-2c1.87-2,2.75-3.61,2.49-4.57C221.74,181.94,221.67,181.83,221.62,181.82Z" style="fill:#BA68C8"></path><path d="M204.81,234.52a1.77,1.77,0,0,1-1.71-.78c-.71-1.24.63-3.45,2.18-6,1.07-1.77,2.54-4.2,2.13-4.87-.11-.18-.46-.26-1-.22-3.91.26-9.5,5.25-12.31,8.49a2.79,2.79,0,0,1,.21,1.21,2.23,2.23,0,0,1-2.17,2.17.75.75,0,0,1-.8-.74,5.88,5.88,0,0,1,1.54-2.77c-.56-.74-1.74-1.41-3.78-1.69a9.54,9.54,0,0,0-6.07,1.35,4.56,4.56,0,0,1-.43,2.37,2.41,2.41,0,0,1-2.13,1.48,1.08,1.08,0,0,1-1.07-.55c-.17-.31-.23-.88.41-1.78a8.5,8.5,0,0,1,2.11-2,1.62,1.62,0,0,0-.25-.51,1.06,1.06,0,0,0-1.11-.38,22.22,22.22,0,0,0-4.16,1.65c-3.44,1.58-7.71,3.56-12,3.56a2.66,2.66,0,0,1-2.7-2,7,7,0,0,1-.12-2.82c-3.52,2.39-6.91,4.33-7.66,4.75l-.49-.87c2-1.1,5.29-3.12,8.42-5.29.85-3.46,3.06-7.37,5.07-8.72a2.35,2.35,0,0,1,2.94-.1,1.72,1.72,0,0,1,.66,1.53c-.18,2.08-3.91,5.2-7.81,7.93a6.85,6.85,0,0,0,0,3.3,1.63,1.63,0,0,0,1.74,1.29c4,0,8.19-1.92,11.54-3.47a22.6,22.6,0,0,1,4.4-1.72,2,2,0,0,1,2.09.76,2.62,2.62,0,0,1,.32.57,10.3,10.3,0,0,1,6.45-1.33,6.69,6.69,0,0,1,4.29,1.91c3.17-3.6,9.06-8.34,12.81-8.59a1.9,1.9,0,0,1,1.92.7c.72,1.19-.6,3.38-2.14,5.91-1.09,1.79-2.58,4.25-2.16,5,.12.22.52.27.84.27,2.57,0,5.58-1.39,7.69-2.87a3.58,3.58,0,0,1-.59-.89,2.56,2.56,0,0,1,.38-2.77,2.58,2.58,0,0,1,2.75-.71,1.41,1.41,0,0,1,1.14,1.62,5.47,5.47,0,0,1-2,2.78c1.09.66,3,1.28,6.46,1.28,6.57,0,8.47-2.26,10-4.08,1.06-1.27,2.07-2.47,4.27-2.47.37,0,1.48,0,1.86.75s-.45,2.06-1.38,3.31c-.45.6-1.39,1.84-1.25,2.12,0,0,.13.15.77.15,2.41,0,4-1.53,5.5-3,1.18-1.15,2.3-2.24,3.72-2.46a1.72,1.72,0,0,1,1.43.31,3.07,3.07,0,0,1,.67,2.39c0,1.55.16,2.18,1.16,2.18,1.79,0,4.73-1.44,6.49-2.63a1.67,1.67,0,0,1,0-1.78,1.42,1.42,0,0,1,1.5-.46c.95.16,1,.8.95,1a2.66,2.66,0,0,1-1.08,1.47c.86.94,2.68,2,5.78,2,6.39,0,9.28-3.35,9.31-3.38l.77.64c-.13.15-3.2,3.74-10.08,3.74-3.35,0-5.51-1.17-6.58-2.41-2.09,1.43-5.37,2.8-7.05,2.8-2.08,0-2.12-1.89-2.16-3.15,0-.67,0-1.43-.31-1.66a.81.81,0,0,0-.64-.08c-1.1.17-2.06,1.11-3.17,2.19-1.59,1.55-3.38,3.3-6.2,3.3-.32,0-1.31,0-1.66-.7s.4-1.92,1.34-3.17c.5-.67,1.45-1.93,1.28-2.26,0,0-.11-.2-1-.2-1.73,0-2.48.88-3.5,2.11-1.66,2-3.73,4.44-10.77,4.44-3.88,0-6.07-.76-7.31-1.62C210.92,233.05,207.54,234.52,204.81,234.52Zm-24.51-1a1.3,1.3,0,0,0,.18,0,1.44,1.44,0,0,0,1.23-.93,3.52,3.52,0,0,0,.34-1.24,8.47,8.47,0,0,0-1.06,1c-.6.67-.7,1.07-.69,1.18Zm13-1.4a8.21,8.21,0,0,0-.9,1.38,1.29,1.29,0,0,0,.9-1.2A1.08,1.08,0,0,0,193.32,232.1Zm20.87-4.95a1.5,1.5,0,0,0-1.15.5,1.52,1.52,0,0,0-.21,1.7,2.38,2.38,0,0,0,.48.68,5,5,0,0,0,1.88-2.28c0-.15.06-.36-.44-.52A2.23,2.23,0,0,0,214.19,227.15Zm40.74.08c-.15,0-.26,0-.3.09a.65.65,0,0,0,0,.58,2.44,2.44,0,0,0,.59-.63l-.09,0A.93.93,0,0,0,254.93,227.23ZM168.61,220a2,2,0,0,0-1.08.4c-1.63,1.1-3.43,4.11-4.36,7,3.4-2.45,6.27-5,6.4-6.48a.69.69,0,0,0-.29-.67A1,1,0,0,0,168.61,220Z" style="fill:#BA68C8"></path><path d="M154.22,275.74c-1.6-1.6-1.24-4.51.93-7.4,2.39-3.2,6.42-5.56,9.49-3.88a4.32,4.32,0,0,1,2.11,2.44,8.13,8.13,0,0,1,4.06.09,6.26,6.26,0,0,1,2.66,1.58,7.85,7.85,0,0,1,4.74-2,1.88,1.88,0,0,1,1.72.66c.43.69,0,1.58-.42,2.44-.28.56-.65,1.33-.49,1.58,0,.07.24.27,1.12.27a7.78,7.78,0,0,0,4.34-1.66,7.11,7.11,0,0,1,1.41-4.26,1.87,1.87,0,0,1,1.9-.79,1.17,1.17,0,0,1,.87,1.4c-.15,1.07-1.4,2.78-3.14,4.15a3,3,0,0,0,.18.64,1.16,1.16,0,0,0,1.17.71,7.14,7.14,0,0,0,4.37-1.89c1-.74,1.83-1.37,2.8-1.27a1.18,1.18,0,0,1,.84.42,1.51,1.51,0,0,1,.1,1.23c-.07.39-.11.66,0,.82s.53.4,1.86.4a12,12,0,0,0,7.46-3.12l.7.71a12.87,12.87,0,0,1-8.16,3.41c-1.37,0-2.2-.24-2.63-.76A1.89,1.89,0,0,1,194,270a2,2,0,0,0,.06-.44l-.13,0c-.57-.08-1.27.46-2.09,1.07a8.1,8.1,0,0,1-5,2.09,2.17,2.17,0,0,1-2.07-1.29,2.23,2.23,0,0,1-.16-.43,8.53,8.53,0,0,1-4.5,1.53c-1,0-1.66-.24-2-.73-.46-.73,0-1.66.43-2.56.22-.47.61-1.25.47-1.47,0,0-.14-.19-.87-.19a6.85,6.85,0,0,0-4.16,1.8,2.78,2.78,0,0,1,.28,1.68,2.41,2.41,0,0,1-2.3,2.06.93.93,0,0,1-1-1,5.11,5.11,0,0,1,1.71-2.89,5.37,5.37,0,0,0-2.24-1.3,7,7,0,0,0-3.54-.06,2.75,2.75,0,0,1,0,.41,6.91,6.91,0,0,1-3.27,5.65,3.26,3.26,0,0,1-3.4.09,1.93,1.93,0,0,1-.83-2.65c.8-1.72,3.49-3.45,6.31-4.24a3.36,3.36,0,0,0-1.62-1.81c-2.54-1.38-6.13.83-8.21,3.61-1.41,1.88-2.51,4.6-1,6.09ZM166,268.12c-2.55.75-5,2.34-5.59,3.68a.94.94,0,0,0,.44,1.37,2.28,2.28,0,0,0,2.38-.1A5.89,5.89,0,0,0,166,268.3Zm7.3,2a6.32,6.32,0,0,0-.54.64c-.67.87-.73,1.34-.71,1.42a1.52,1.52,0,0,0,1.32-1.28A1.63,1.63,0,0,0,173.27,270.11Zm14.15-4.35a1.22,1.22,0,0,0-.77.49,5.92,5.92,0,0,0-1.12,2.76,6.55,6.55,0,0,0,2.14-2.94c0-.25,0-.27-.14-.3Z" style="fill:#BA68C8"></path><path d="M183.12,171.65H145.67a.92.92,0,0,1-.92-.92h0a.92.92,0,0,1,.92-.92h37.45a.92.92,0,0,1,.92.92h0A.92.92,0,0,1,183.12,171.65Z" style="opacity:0.2;isolation:isolate"></path><rect x="144.75" y="174.13" width="136.92" height="29.39" style="fill:#fff;opacity:0.8;isolation:isolate"></rect><path d="M183.12,251.65H145.67a.92.92,0,0,1-.92-.92h0a.92.92,0,0,1,.92-.92h37.45a.92.92,0,0,1,.92.92h0A.92.92,0,0,1,183.12,251.65Z" style="opacity:0.2;isolation:isolate"></path><rect x="144.75" y="254.13" width="66.92" height="29.39" style="fill:#fff;opacity:0.8;isolation:isolate"></rect><path d="M253.12,251.65H215.67a.92.92,0,0,1-.92-.92h0a.92.92,0,0,1,.92-.92h37.45a.92.92,0,0,1,.92.92h0A.92.92,0,0,1,253.12,251.65Z" style="opacity:0.2;isolation:isolate"></path><rect x="214.75" y="254.13" width="66.92" height="29.39" style="fill:#fff;opacity:0.8;isolation:isolate"></rect><path d="M183.12,291.65H145.67a.92.92,0,0,1-.92-.92h0a.92.92,0,0,1,.92-.92h37.45a.92.92,0,0,1,.92.92h0A.92.92,0,0,1,183.12,291.65Z" style="opacity:0.2;isolation:isolate"></path><rect x="144.75" y="294.13" width="66.92" height="29.39" style="fill:#fff;opacity:0.8;isolation:isolate"></rect><path d="M253.12,291.65H215.67a.92.92,0,0,1-.92-.92h0a.92.92,0,0,1,.92-.92h37.45a.92.92,0,0,1,.92.92h0A.92.92,0,0,1,253.12,291.65Z" style="opacity:0.2;isolation:isolate"></path><rect x="214.75" y="294.13" width="66.92" height="29.39" style="fill:#fff;opacity:0.8;isolation:isolate"></rect></g></svg>